Patient4_TMGait_0pt7_01_right_46_EMG.mot
version=1
nRows=40
nColumns=33
inDegrees=no
endheader
time	1LAddLong	2LGlutMax	3LGlutMed	4LIliopsoas	5LSemiMemb	6LBicFemLong	7LRecFem	8LVastMed	9LVastLat	10LGasMed	11LTibAnt	12lTibPost	13LPeroneusLong	14LSol	15LExtDigLong	16LFlexDigLong	17RAddLong	18RGlutMax	19RGlutMed	20RIliopsoas	21RSemiMemb	22RBicFemLong	23RRecFem	24RVastMed	25RVastLat	26RGasMed	27RTibAnt	28RTibPost	29RPeroneusLong	30RSol	31RExtDigLong	32RFlexDigLong
53.205	-0.021362	-0.45563	-0.21881	0.011597	0.009308	-0.022125	0.27603	-0.001068	0.15518	-0.002747	-0.014343	-0.012054	-0.19028	0.27435	0.032349	0.005798	0.0383	-0.87097	-0.50858	0.035706	0.52216	0.02594	-0.4303	0.24414	-0.054016	0.055237	0.059662	-0.19775	-0.75989	-0.4335	-0.007019	-0.022888
53.206	-0.019073	-0.45303	-0.2298	0.036469	0.01297	-0.021057	0.31525	0.005035	0.1564	-0.030212	-0.005188	0.23422	-0.029755	0.40497	0.055389	-0.011597	-0.016937	-0.95642	-1.2405	0.075073	0.093231	0.34592	-0.29648	0.17685	-0.005035	0.025177	-0.001526	-0.2861	-0.79926	-0.4509	-0.002747	-0.027313
53.207	-0.023193	-0.49179	-0.21378	0.039063	0.022888	-0.0383	0.31647	0.002899	0.16129	-0.055237	-0.019531	-0.17044	0.007324	0.57419	0.059814	-0.050049	0.017242	-0.88715	-1.2143	-0.048065	0.21759	0.30731	-0.070496	-0.063019	0.009613	0.065002	-0.15595	-0.37399	0.84198	-0.17212	0.00061	-0.02121
53.208	-0.033875	-0.53436	-0.18066	0.026703	0.024872	-0.039673	0.33569	0.001068	0.18784	0.003967	-0.014038	-0.005493	-0.057373	0.72159	0.027924	-0.058289	0.040131	-0.96374	-0.62027	-0.15488	-0.060577	0.067596	0.15213	-0.36072	0.030975	0.01358	-0.075378	0.33325	0.39581	-0.009766	-0.001678	-0.016785
53.209	-0.02594	-0.53421	-0.17349	0.00946	0.016022	-0.045776	0.33463	-0.001373	0.19592	0.03067	-0.018005	0.059509	-0.11063	0.45136	0.009613	-0.037537	0.038605	-1.2744	-0.7518	-0.037079	-0.055389	-0.16388	0.39398	-0.29221	0.000458	-0.075989	-0.051727	0.41962	-0.44205	-0.20065	-0.003967	-0.005493
53.21	-0.019226	-0.56229	-0.1329	0.02182	0.025024	-0.05249	0.31281	-0.002747	0.20126	0.10666	-0.000305	0.11124	-0.14374	0.28015	-0.002441	-0.028381	0.007782	-1.2709	-0.87494	0.072632	0.035858	-0.15976	0.41092	-0.11047	0.004272	-0.055542	0.099487	0.10864	0.21133	-0.48706	-0.002441	0.000458
53.211	-0.019684	-0.50308	-0.082855	0.000763	0.026245	-0.057526	0.31265	-0.00412	0.22232	0.095825	-0.00946	-0.13794	-0.12772	-0.12985	-0.005798	-0.046692	-0.024872	-1.0306	0.51071	0.090027	-0.11765	0.037079	0.41489	-0.034943	0.020447	-0.051727	0.15656	-0.028992	0.59341	-0.64026	-0.000458	-0.019073
53.212	-0.018463	-0.50018	-0.087585	-0.004578	0.027618	-0.06424	0.29907	-0.005798	0.23071	0.02243	0.008392	0.01297	-0.16846	-0.76889	0.001221	-0.052795	-0.016785	-0.88287	-0.36728	0.13199	-0.008545	-0.034637	0.43869	0.098724	0.024719	-0.054169	0.28946	-0.16068	-0.71045	0.37689	0.004272	-0.020447
53.213	-0.01236	-0.4982	-0.081635	-0.012207	0.042877	-0.059662	0.26749	-0.00351	0.2327	0.075378	-0.017395	-0.12665	-0.12009	-0.82321	-0.020905	0.077667	-0.046387	-0.83435	-0.96649	0.013123	0.38742	-0.15045	0.37705	0.19791	0.036316	-0.072479	0.2066	0.002289	-0.95596	0.8168	-0.002899	-0.016632
53.214	-0.014343	-0.45013	-0.071259	-0.009766	0.031738	-0.035706	0.26093	-0.007629	0.23621	0.079803	-0.00885	-0.13611	-0.11398	-0.28351	-0.021362	0.094299	-0.10941	-0.68619	-0.47409	0.014038	0.43808	-0.16998	0.39154	0.10483	0.069427	-0.067596	-0.15595	0.011749	2.1664	0.53055	-0.003967	-0.000458
53.215	-0.004578	-0.43335	-0.023956	-0.014038	0.015106	-0.063782	0.30579	-0.003815	0.23636	0.13626	-0.015106	-0.071716	-0.088043	0.18265	0.001221	0.014496	-0.11353	-0.55756	-0.91766	-0.03891	0.45258	-0.39276	0.4953	0.25146	0.087891	0.016479	-0.29037	-0.031891	0.90714	-0.10086	-0.001068	-0.00885
53.216	-0.008087	-0.41092	0.00412	0.000916	0.01236	-0.061035	0.35446	-0.004272	0.26489	0.13504	-0.018463	-0.05661	-0.11612	0.39856	0.008087	-0.010834	-0.045776	-0.50583	-0.66803	-0.11704	0.24277	-0.31693	0.62775	0.20142	-0.049744	0.027771	-0.16556	-0.10544	-0.057678	-0.15579	0.000153	-0.010834
53.217	-0.002441	-0.38528	-0.007019	-0.003662	0.013885	-0.024719	0.43945	-0.002899	0.28076	0.047455	0.01358	-0.027771	-0.096588	0.18295	0.016632	0.007019	-0.016327	-0.50736	-0.36331	-0.13916	0.18219	0.16953	0.79575	0.06897	-0.19012	-0.000153	-0.074615	-0.043182	-1.113	0.27252	-0.002594	-0.009155
53.218	-0.00946	-0.37064	-0.03952	-0.009308	0.014801	-0.021057	0.53741	0.002899	0.27924	-0.22751	0.018616	-0.01297	-0.095825	0.083771	0.044556	0.017853	-0.017242	-0.48523	0.43106	-0.12817	0.18402	0.32928	0.7399	-0.023651	-0.23285	0.041199	-0.13214	-0.044403	-0.34988	-0.067596	-0.002289	-0.010376
53.219	-0.013885	-0.37888	-0.039673	0.002289	0.024719	-0.0177	0.61813	0.008087	0.28427	-0.41199	0.010223	-0.009613	-0.11276	0.066681	0.026855	0.019073	-0.032501	-0.51971	0.11185	-0.012512	0.27756	0.37933	0.53146	-0.060272	-0.20508	-0.035248	-0.015564	-0.11002	-0.29862	-0.19028	-0.001526	-0.004425
53.22	-0.016785	-0.38452	-0.070648	0.001373	0.015259	-0.030975	0.60867	0.008392	0.2478	-0.14725	-0.001526	-0.02594	-0.12131	-0.004578	-0.000153	0.006866	-0.046539	-0.53436	0.10666	0.08606	0.60577	0.62592	0.41046	-0.02594	0.20248	-0.076447	0.11871	-0.042877	-0.23712	-0.50461	-0.002747	-0.013275
53.221	-0.018616	-0.40878	-0.082092	0.017548	0.021667	-0.021057	0.60837	0.002594	0.19852	-0.10086	-0.004578	-0.024719	-0.12436	-0.07782	0.010376	0.014954	-0.034332	-0.64011	0.029907	0.061951	0.39124	0.52429	0.60059	-0.025482	0.45487	-0.045166	-0.037079	0.036621	-0.16556	-0.59845	-0.00412	-0.014191
53.222	-0.027466	-0.39917	-0.070038	0.032501	0.022278	0.002899	0.57098	0.016937	0.14389	-0.13702	-0.052032	0.004883	-0.11353	-0.16968	0.012512	0.024261	-0.024719	-0.68741	0.34393	0.074158	0.057983	-0.3714	0.60486	0.011444	0.41931	0.037842	0.20111	0.015411	0.26123	-0.34424	-0.001068	-0.016632
53.223	-0.021973	-0.36285	-0.039825	0.040588	0.033569	0.000153	0.57831	0.011749	0.1062	0.1947	-0.065002	0.007019	-0.15991	-0.13168	0.039368	0.020294	0.013123	-0.9169	0.44388	0.032501	-0.28122	-0.68741	0.70511	-0.063019	0.20157	0.081177	0.31281	-0.005035	0.89172	-0.41779	-0.001221	-0.02121
53.224	-0.024109	-0.25772	-0.023499	0.02121	0.002441	-0.000763	0.62561	0.010529	0.09491	0.34622	-0.076447	-0.004883	-0.11673	-0.14893	0.02533	0.022736	-0.023499	-1.0368	-0.13763	-0.07843	-0.50598	-0.41443	0.62607	-0.010681	-0.019989	0.063629	0.26581	-0.04776	2.0377	-0.44693	0.000458	-0.018616
53.225	-0.030365	-0.15549	-0.025482	0.015411	0.014343	0.00885	0.62653	0.005188	0.090637	0.28015	-0.066376	-0.13702	-0.032959	-0.11047	0.014648	0.010986	-0.034027	-1.0721	-0.2121	-0.17395	-0.18127	-0.48447	0.61508	0.11566	-0.15411	0.041199	0.16556	-0.007477	1.6679	0.5275	0.001221	-0.019073
53.226	-0.021362	-0.059052	-0.024109	0.011749	0.006866	0.009613	0.62912	0.004578	0.076752	0.32577	-0.036774	0.22919	-0.019684	0.058899	0.037384	-0.003204	-0.019379	-1.1891	0.19302	-0.10666	-0.057373	-0.58289	0.58014	0.13718	-0.36011	0.023956	-0.07019	0.038147	0.22583	0.28809	-0.000458	-0.013885
53.227	-0.016632	0.014191	-0.034332	0.007477	0.024567	0.027161	0.53207	0.001526	0.073547	-0.48691	-0.061798	0.064392	-0.033875	0.040588	-0.054626	-0.027618	-0.015869	-1.2637	-0.66437	-0.043182	-0.084076	-0.48431	0.569	0.35065	-0.51895	0.024414	-0.26855	-0.040436	-0.3894	-0.10742	-0.003815	-0.012817
53.228	-0.006866	0.16144	-0.024872	0.007935	0.022278	0.033569	0.42893	0.010376	0.071869	-0.1445	0.013275	-0.18143	-0.098114	0.14114	0.15656	0.005646	-0.06546	-1.2868	-0.42419	-0.059662	0.11063	-0.37033	0.48202	1.068	-0.4657	0.026855	-0.2449	-0.051422	-0.61844	0.002747	-0.002441	-0.007477
53.229	-0.000305	0.26977	0.007782	-0.016479	0.015869	0.037842	0.29572	0.007172	0.04837	-0.013275	0.11459	0.001526	-0.1236	0.21103	0.094452	0.077362	-0.11414	-1.115	-0.022736	-0.010681	0.056305	-0.21255	0.38849	0.93628	-0.32776	0.007019	-0.14038	-0.046082	-1.9498	0.07431	-0.002441	-0.006866
53.23	-0.001526	0.37811	-0.00351	-0.036621	0.026093	0.020905	0.17685	0.002136	0.020752	-0.20065	0.085754	0.1535	-0.12894	0.35584	0.57098	0.031433	-0.097046	-1.06	-0.336	0.031128	0.18112	0.15549	0.24292	0.41885	-0.021515	-0.011597	0.14648	-0.057068	-1.7476	0.019531	-0.007782	-0.012054
53.231	0.000916	0.46112	0.019684	-0.062408	0.023499	0.038147	0.19394	-0.00061	-0.016937	-0.44052	-0.083313	0.083313	-0.07782	0.45487	0.11169	0.005646	-0.082703	-1.0333	-0.46371	0.009308	0.20416	-0.089111	0.13245	-0.008545	0.070648	0.003967	0.29068	-0.067291	-1.1243	0.10544	0.001068	-0.017395
53.232	-0.010681	0.54459	0.021667	-0.047455	0.019989	0.034027	0.14511	0.010071	-0.0354	-0.30746	-0.028229	-0.034027	-0.086975	0.52994	0.21729	0.034485	-0.058899	-1.0721	-0.75653	0.11322	0.055084	-0.48126	0.23117	-0.37033	0.069733	0.035858	0.11108	0.047302	-0.71426	0.06134	0.00351	-0.016785
53.233	-0.007782	0.62836	0.054169	-0.029755	0.015717	0.017853	0.052032	0.022736	-0.036469	-0.35263	0.12817	-0.010834	-0.082245	0.49927	-0.23193	0.058289	-0.024414	-0.98358	0.34927	-0.00946	-0.0177	-0.31281	0.25513	-0.65185	0.035706	0.045319	0.050507	0.063019	0.5983	-0.014343	-0.002441	-0.018616
53.234	0.002441	0.80734	0.090179	-0.005035	0.022888	0.027313	0.082245	0.011444	-0.023956	-0.41351	0.29617	0.005951	-0.112	0.08255	0.072021	0.045929	-0.014648	-0.75485	0.057373	0.023193	-0.036469	-0.007935	0.30548	-0.47318	-0.063934	0.041809	0.13458	0.088501	2.4814	0.060577	-0.000305	-0.025787
53.235	0.006104	0.82825	0.093689	0.026855	0.0177	-0.004272	0.1532	0.009766	-0.026855	-0.36041	0.25787	-0.012207	-0.017395	-0.15106	-0.19852	0.046692	-0.017548	-0.7161	-1.0371	0.11414	-0.059814	0.35141	0.31006	-0.22461	-0.033417	0.053101	0.24124	0.014648	1.826	-0.007629	-0.003967	-0.022736
53.236	-0.018005	0.93079	0.11414	0.03418	0.014191	-0.018616	0.35553	-0.005646	-0.050964	-0.26489	-0.048981	-0.017395	0.024567	0.12192	0.14099	0.041809	-0.011292	-0.71167	-1.3414	0.14053	-0.095978	0.075531	0.40604	-0.31021	0.064392	0.066223	0.4892	0.001526	-1.4699	-0.17822	-0.002441	-0.029144
53.237	-0.018616	0.97519	0.12543	0.027618	0.019836	-0.049133	0.46921	-0.018463	-0.080414	-0.21545	-0.17075	-0.010681	-0.067902	0.19974	-0.34805	0.013733	-0.024567	-0.63522	-1.2199	0.069122	-0.14999	-0.093842	0.3125	-0.36057	0.22201	0.043335	0.34409	-0.009918	1.1115	-0.21103	0.012054	-0.023193
53.238	-0.024719	1.0521	0.14069	0.015259	0.016174	-0.053864	0.41	-0.00946	-0.094604	-0.17136	-0.21957	0.00885	-0.067902	0.26825	-0.53467	-0.004883	-0.028229	-0.36819	-1.1325	-0.041046	-0.16907	-0.39185	0.2301	-0.044556	0.22888	0.024719	0.21103	-0.000458	1.8596	-0.18433	-0.001221	-0.022278
53.239	-0.018158	1.1525	0.15823	-0.026855	0.022125	-0.080261	0.27985	-0.015411	-0.090332	-0.11566	0.00412	-0.009003	-0.048523	0.20401	-0.49698	-0.00885	-0.030518	-0.23697	-0.98816	-0.13718	-0.17777	-0.32761	0.054779	1.0492	0.15854	-0.043182	0.15366	0.000458	-1.0599	-0.12817	-0.000763	-0.016327
53.24	-0.010986	1.2206	0.1535	-0.051575	0.023804	-0.085754	0.1831	-0.019531	-0.089111	-0.036011	0.17517	-0.000458	-0.11459	-0.000916	-0.46341	-0.00473	-0.003662	-0.031586	-1.1014	-0.23605	-0.15778	-0.4509	0.074005	1.1443	0.056915	-0.098114	0.23041	-0.007019	-2.5732	0.15869	-0.00412	-0.023193
53.241	-0.006561	1.2561	0.15549	-0.057678	0.021515	-0.079498	0.13702	-0.02655	-0.10284	-0.066833	0.28488	0.011902	-0.14587	0.010376	0.03952	-0.005035	0.023651	0.24674	-0.5693	-0.42374	-0.12589	-0.64087	-0.079041	0.64484	0.06134	-0.10178	-0.049133	-0.006409	0.23636	0.41351	-0.007019	-0.023651
53.242	-0.008545	1.3985	0.1973	-0.032349	0.036926	-0.076141	-0.044403	-0.017242	-0.11124	-0.15793	0.10483	-0.008087	-0.036621	0.043335	0.83252	-0.000305	0.019836	0.30594	0.22751	-0.24628	-0.047302	-0.55359	-0.67123	0.22492	-0.042725	-0.029907	-0.33356	-0.004578	-0.61172	0.45013	-0.003357	-0.030518
53.243	-0.00412	1.4833	0.14511	0.017548	0.033569	-0.074158	-0.1416	-0.006714	-0.12116	-0.2417	-0.4631	-0.022278	0.039978	0.087738	0.1004	0.000763	0.011902	0.50552	-0.007935	0.009155	-0.042419	-0.48035	-0.80933	-0.33524	-0.23163	0.056915	-0.24338	-0.010376	-0.21118	0.4599	0.00061	-0.026703
53.244	0.002136	1.5178	0.12848	0.010071	0.031433	-0.077057	-0.046082	-0.011444	-0.15839	-0.070496	-0.29663	-0.013885	-0.056915	0.072784	-0.18753	0.016022	0.027008	0.65857	0.70938	0.16068	-0.091553	-0.8963	-0.34897	-0.93521	-0.29465	0.10941	-0.10681	-0.009613	-0.42221	0.41122	-0.006714	-0.026703
